<svg width="15" height="15" viewBox="0 0 15 15" fill="none" xmlns="http://www.w3.org/2000/svg">
<path d="M14.7949 12.9667L11.8728 10.0451C11.8073 9.97993 11.7297 9.92827 11.6442 9.8931C11.5588 9.85793 11.4672 9.83995 11.3748 9.84019H10.8968C11.8513 8.61741 12.3033 7.0767 12.1607 5.5322C12.0181 3.98771 11.2917 2.55574 10.1295 1.5283C8.96733 0.500847 7.45695 -0.0447086 5.90633 0.00286958C4.35571 0.0504477 2.88164 0.687577 1.78467 1.78434C0.687703 2.88111 0.050457 4.35492 0.0028701 5.90525C-0.0447168 7.45558 0.500939 8.96568 1.52858 10.1276C2.55621 11.2896 3.98844 12.0159 5.53322 12.1585C7.078 12.301 8.619 11.8491 9.842 10.8948V11.3728C9.84176 11.4651 9.85974 11.5567 9.89492 11.6421C9.93009 11.7275 9.98176 11.8052 10.047 11.8706L12.9691 14.7922C13.0343 14.858 13.1118 14.9103 13.1973 14.946C13.2827 14.9816 13.3744 15 13.4671 15C13.5597 15 13.6514 14.9816 13.7369 14.946C13.8223 14.9103 13.8999 14.858 13.965 14.7922L14.7949 13.9624C14.9263 13.83 15 13.6511 15 13.4646C15 13.2781 14.9263 13.0991 14.7949 12.9667ZM6.09078 9.84019C5.34886 9.84019 4.6236 9.62022 4.00671 9.20811C3.38983 8.796 2.90903 8.21024 2.62511 7.52493C2.34119 6.83961 2.2669 6.0855 2.41164 5.35797C2.55638 4.63044 2.91365 3.96216 3.43827 3.43764C3.96289 2.91312 4.63129 2.55591 5.35895 2.4112C6.08662 2.26648 6.84086 2.34076 7.52631 2.62462C8.21175 2.90849 8.79761 3.38921 9.2098 4.00598C9.62199 4.62275 9.842 5.34788 9.842 6.08966C9.84221 6.58225 9.74533 7.07005 9.55689 7.52518C9.36846 7.98032 9.09215 8.39386 8.74378 8.74217C8.3954 9.09048 7.98178 9.36674 7.52657 9.55514C7.07135 9.74354 6.58346 9.84041 6.09078 9.84019Z" fill="#05489B"/>
</svg>
